<?xml version="1.0" encoding="UTF-8"?>
<svg id="Layer_1" data-name="Layer 1" xmlns="http://www.w3.org/2000/svg" viewBox="0 0 116.434 38.561">
  <path d="M19.837,35.948h-.287l-3.596-13.041c-.815-2.972-1.63-6.04-2.205-8.39h-.192v2.829c0,12.993,1.438,16.972,4.315,17.883v.336h-6.377v-.336c1.055-1.199,1.678-4.89,1.678-17.883v-4.459c0-6.808-.042-7.192-3.629-7.192v-.335h10.58c-.144,3.691,1.39,10.691,2.829,16.061,1.294-5.323,2.349-9.876,2.109-16.061h10.885v.335c-3.729,0-3.789,1.251-3.789,7.192v14.958c0,6.953.471,7.342,3.422,7.384v.3l-13.826.036v-.336c2.637,0,3.452-2.589,3.452-7.384l-.048-13.231h-.144c-.671,2.829-1.486,6.28-2.014,8.341l-3.164,12.993Z"/>
  <path d="M51.613,35.529h-10.038v-.336c2.428-2.606,2.847-7.191,2.847-17.643v-3.405c0-8.055-.169-8.409-3.003-8.45v-.335l9.284-.036c0,1.965.767,4.554,3.787,11.889,1.151,2.734,2.35,5.802,3.405,7.767l.143-.047v-.864c0-10.02-2.109-17.786-5.657-18.411v-.335h7.336v.335c-.719,1.775-1.199,9.685-1.342,15.773,0,5.657.143,10.692.479,14.097h-5.418l-5.034-12.753c-1.199-3.02-2.397-6.137-3.548-9.157h-.096v.766c0,8.767-1.264,19.521,6.856,20.808v.336Z"/>
  <path d="M68.422,35.529v-.336c1.678,0,1.678-.479,1.678-8.678v-12.177c0-8.2,0-8.679-1.678-8.679v-.335h10.356c5.466,0,7.24,1.773,7.24,7.431,0,6.377-2.685,7.144-7.575,7.241v.24c5.082.047,7.863.958,7.863,7.862,0,5.657-1.821,7.432-7.336,7.432h-10.547ZM77.052,5.659v14.288h.096c1.582,0,2.253-1.15,2.253-6.761,0-6.328-.767-7.527-2.349-7.527ZM79.641,27.665c0-6.28-.863-7.384-2.493-7.384h-.096v14.911c1.726,0,2.589-1.054,2.589-7.527Z"/>
  <path d="M106.728,30.445v-8.726c0-1.726-.671-1.821-1.87-1.821v6.328c0,8.198.014,8.966,2.507,8.966v.336h-11.211v-.336c1.678,0,1.753-.767,1.753-8.966v-12.13c0-8.246,0-8.726-1.678-8.726v-.335h11.794c4.411,0,5.897,1.678,5.897,7.096,0,6.52-2.829,7.239-7.671,7.336v.287c5.562,0,7.383,1.487,7.383,5.226v4.698c0,1.535.096,1.966.479,1.966.288,0,.575-.192.623-4.41,0-1.438-.048-2.925-.192-4.652h.431c0,1.63.048,2.973.048,4.219,0,7.384-.719,8.727-4.124,8.727-2.829,0-4.171-1.438-4.171-5.083ZM104.858,5.322v14.288c1.63-.143,2.349-1.582,2.349-7.048,0-6.328-.767-7.241-2.349-7.241Z"/>
  <path d="M4.191,5.36h5.577l1.936,28.27c.077,1.123.311,1.744.736,1.898h-3.718l-.233-3.797h-3.447l-.271,3.797H1.17c.542-.155.697-.93.774-1.898L4.191,5.36ZM5.276,28.402h3.021l-1.395-20.333-1.626,20.333Z"/>
  <path d="M36.858,31.732h4.803v3.797h-6.274c-1.047,0-1.55-.618-1.55-1.898V7.255c0-1.274.503-1.895,1.55-1.895h6.196v3.756h-4.725v14.487h4.454v3.406h-4.454v4.724Z"/>
  <path d="M88.881,5.359h5.577l1.936,28.27c.077,1.123.311,1.744.736,1.898h-3.718l-.233-3.797h-3.447l-.271,3.797h-3.601c.542-.155.697-.93.774-1.898l2.247-28.27ZM89.966,28.401h3.021l-1.395-20.333-1.626,20.333Z"/>
  <path d="M61.513,5.36h5.577l1.936,28.27c.077,1.123.311,1.744.736,1.898h-3.718l-.233-3.797h-3.447l-.271,3.797h-3.601c.542-.155.697-.93.774-1.898l2.247-28.27ZM62.598,28.402h3.021l-1.395-20.333-1.626,20.333Z"/>
  <polygon points="61.735 4.996 61.573 4.927 62.361 .05 67.074 0 67.076 .211 61.735 4.996"/>
</svg>